<?xml version="1.0" encoding="UTF-8"?>
<svg version="1.1" xmlns="http://www.w3.org/2000/svg" width="500" height="500">
<path d="M0 0 C165 0 330 0 500 0 C500 165 500 330 500 500 C335 500 170 500 0 500 C0 335 0 170 0 0 Z " fill="#FEFEFE" transform="translate(0,0)"/>
<path d="M0 0 C0.6894873 0.24669434 1.37897461 0.49338867 2.08935547 0.74755859 C16.76040872 6.08099884 29.26945397 13.61588457 41 24 C41.69609375 24.61230469 42.3921875 25.22460938 43.109375 25.85546875 C58.02032466 39.84193953 67.15767942 58.42885654 72 78 C72.18618896 78.65242676 72.37237793 79.30485352 72.56420898 79.97705078 C74.31623799 86.63148908 74.33801692 93.24772691 74.31567383 100.09960938 C74.31253868 102.10031584 74.33676332 104.10100439 74.36132812 106.1015625 C74.3675541 118.75273847 72.59464249 130.79671963 67.4375 142.4375 C67.09090332 143.23188477 66.74430664 144.02626953 66.38720703 144.84472656 C53.8534801 172.68881465 32.48277577 192.28655069 4.23046875 203.53125 C-7.88682085 208.04733626 -19.05715205 209.44149576 -31.9375 209.4375 C-32.66788483 209.4385675 -33.39826965 209.43963501 -34.15078735 209.44073486 C-46.05142062 209.41564694 -56.81869563 208.2501374 -68 204 C-69.86011719 203.33097656 -69.86011719 203.33097656 -71.7578125 202.6484375 C-84.85644899 197.49534754 -95.95820459 189.79364561 -106 180 C-106.85464844 179.195625 -107.70929688 178.39125 -108.58984375 177.5625 C-127.17223563 159.67869428 -138.65124234 134.22694569 -139.16796875 108.390625 C-139.32551019 87.22185074 -139.32551019 87.22185074 -137 78 C-136.75507813 76.92492187 -136.51015625 75.84984375 -136.2578125 74.7421875 C-130.87622587 53.4539643 -118.00014568 33.8107896 -101 20 C-99.70642578 18.93265625 -99.70642578 18.93265625 -98.38671875 17.84375 C-71.83829194 -3.13633289 -32.28234867 -11.80551909 0 0 Z " fill="#FCFDFD" transform="translate(275,134)"/>
<path d="M0 0 C0.6894873 0.24669434 1.37897461 0.49338867 2.08935547 0.74755859 C16.76040872 6.08099884 29.26945397 13.61588457 41 24 C41.69609375 24.61230469 42.3921875 25.22460938 43.109375 25.85546875 C58.02032466 39.84193953 67.15767942 58.42885654 72 78 C72.18618896 78.65242676 72.37237793 79.30485352 72.56420898 79.97705078 C74.31623799 86.63148908 74.33801692 93.24772691 74.31567383 100.09960938 C74.31253868 102.10031584 74.33676332 104.10100439 74.36132812 106.1015625 C74.3675541 118.75273847 72.59464249 130.79671963 67.4375 142.4375 C67.09090332 143.23188477 66.74430664 144.02626953 66.38720703 144.84472656 C53.8534801 172.68881465 32.48277577 192.28655069 4.23046875 203.53125 C-7.88682085 208.04733626 -19.05715205 209.44149576 -31.9375 209.4375 C-32.66788483 209.4385675 -33.39826965 209.43963501 -34.15078735 209.44073486 C-46.05142062 209.41564694 -56.81869563 208.2501374 -68 204 C-69.86011719 203.33097656 -69.86011719 203.33097656 -71.7578125 202.6484375 C-84.85644899 197.49534754 -95.95820459 189.79364561 -106 180 C-106.85464844 179.195625 -107.70929688 178.39125 -108.58984375 177.5625 C-127.17223563 159.67869428 -138.65124234 134.22694569 -139.16796875 108.390625 C-139.32551019 87.22185074 -139.32551019 87.22185074 -137 78 C-136.75507813 76.92492187 -136.51015625 75.84984375 -136.2578125 74.7421875 C-130.87622587 53.4539643 -118.00014568 33.8107896 -101 20 C-99.70642578 18.93265625 -99.70642578 18.93265625 -98.38671875 17.84375 C-71.83829194 -3.13633289 -32.28234867 -11.80551909 0 0 Z M-109.40869141 37.14697266 C-126.84595833 57.45210551 -134.47904388 83.53641272 -133 110 C-130.18378861 138.0271704 -117.40750479 162.72591961 -96 181 C-74.5138014 198.17051579 -48.10176702 205.34797369 -20.83886719 202.79785156 C5.67850287 199.42430232 30.11331196 186.09287224 46.875 165.25 C64.18716037 142.64104849 71.10648561 115.33112233 67.64550781 87.109375 C64.64399521 68.87892967 56.9340248 52.07334032 45 38 C44.33871094 37.16597656 43.67742187 36.33195312 42.99609375 35.47265625 C27.7475446 17.15703649 6.77033621 7.96841985 -16 3 C-17.2080127 2.73280151 -17.2080127 2.73280151 -18.44042969 2.46020508 C-52.95372517 -3.74520907 -86.61817925 11.95816048 -109.40869141 37.14697266 Z " fill="#080808" transform="translate(275,134)"/>
<path d="M0 0 C2.6774725 2.6774725 3.09421156 5.18934958 4.1875 8.8125 C7.58247138 19.48867282 12.41242393 28.67217261 20 37 C20 37.66 20 38.32 20 39 C20.556875 39.226875 21.11375 39.45375 21.6875 39.6875 C24.63246684 41.35896766 26.68156544 43.55276352 29 46 C20.77993695 45.09735764 14.54359195 40.28068228 9.39453125 33.94140625 C7.19073921 31.00421523 5.07639388 28.02807441 3 25 C2.00710624 23.66136645 1.01007203 22.32571953 0 21 C-2.35862583 28.94605012 -4.56933303 36.8301386 -6 45 C-5.42894531 45.15855469 -4.85789063 45.31710938 -4.26953125 45.48046875 C14.29719198 50.82319833 32.52279486 58.04955419 42.5625 75.625 C45.90073765 82.82807054 45.98018469 90.19276845 46 98 C54.33713876 90.31702738 56.09906684 80.30819945 58 69.5625 C60.21861487 57.02682353 62.76531868 43.82837901 73.05859375 35.29296875 C75 34 75 34 77 34 C73.38831145 29.83266706 70.16900197 28.30307569 64.671875 27.77734375 C55.79673496 27.46426366 49.46501639 29.72847311 42.8984375 35.75 C39.3351149 39.97319716 37.18415217 44.96155807 35 50 C33.71224109 47.0344752 34.0357042 45.9006334 35.15234375 42.79296875 C35.72863515 41.5820379 36.32479182 40.38041826 36.9375 39.1875 C37.255979 38.56383545 37.57445801 37.9401709 37.90258789 37.29760742 C41.67187134 30.28257759 46.90299315 24.85456291 54.6796875 22.4453125 C63.62630238 20.7282854 70.62036355 21.39131506 78.41015625 26.20703125 C87.10507505 32.22659042 87.10507505 32.22659042 90 35 C90 35.66 90 36.32 90 37 C89.34773437 37.09796875 88.69546875 37.1959375 88.0234375 37.296875 C81.48601151 38.41537266 76.6236088 39.4591398 72.48046875 45.05078125 C67.25531014 53.97984976 66.0125799 63.97864125 64.15625 74.015625 C62.12733026 84.87034561 59.82074077 96.53831297 50.91796875 103.80859375 C47.93782506 105.65980317 45.47564023 105.85813713 42 106 C41.814375 106.804375 41.62875 107.60875 41.4375 108.4375 C37.64868658 117.82716803 30.27229051 124.46791866 21.2512207 128.84936523 C15.82192208 131.15441676 10.90865113 131.42381285 5.0625 131.3125 C4.22009766 131.31572266 3.37769531 131.31894531 2.50976562 131.32226562 C-5.97404814 131.25042425 -13.33086499 129.58980788 -21 126 C-17.98968256 125.06576355 -17.13349732 124.95550089 -14 126 C-2.69845549 126.87838977 9.8499789 127.68479864 20 122 C21.093125 121.401875 22.18625 120.80375 23.3125 120.1875 C31.19382669 113.77246665 35.35036612 106.05342909 37 96 C37.70780264 88.34180754 36.81225892 82.68101563 33 76 C32.38125 74.845 31.7625 73.69 31.125 72.5 C23.89784149 63.01717063 11.08531988 58.46533484 0.1206665 55.07589722 C-3.39547445 53.98526893 -6.88801542 52.82482263 -10.37890625 51.65625 C-11.05147461 51.43134384 -11.72404297 51.20643768 -12.41699219 50.97471619 C-20.23844451 48.30952038 -29.06068436 44.93931564 -35 39 C-34.50929903 57.95890115 -25.38249758 75.09750592 -12 88 C-6.6343395 92.86865225 2.5973022 100 10 100 C9.50371094 99.6596875 9.00742188 99.319375 8.49609375 98.96875 C-2.93879274 90.81027311 -10.30190784 79.91872939 -13 66 C-13.21129555 62.64683153 -13.19262565 59.35311325 -13 56 C-11.35 56.33 -9.7 56.66 -8 57 C-7.78085938 58.03898437 -7.56171875 59.07796875 -7.3359375 60.1484375 C-5.43621269 68.68643437 -3.29789005 75.87169539 2 83 C2.47824219 83.68191406 2.95648438 84.36382812 3.44921875 85.06640625 C9.83015397 93.27965033 19.78549457 98.55403619 29 103 C25.45133277 106.54866723 21.35522905 106.20861559 16.5 106.3125 C1.76977201 106.17497712 -10.07181018 99.36078764 -20.6171875 89.4765625 C-36.12151282 73.36223094 -42.47426345 53.24893099 -42.125 31.3125 C-42.11146484 29.66991211 -42.11146484 29.66991211 -42.09765625 27.99414062 C-42.07438154 25.32918646 -42.04169135 22.66471866 -42 20 C-39.42221657 22.52723866 -37.01088354 25.11355608 -34.6875 27.875 C-28.36236365 35.11526246 -21.58151241 40.8542511 -12 43 C-12.06574219 42.08605469 -12.13148438 41.17210937 -12.19921875 40.23046875 C-12.19226558 34.69435637 -10.40237751 29.56721448 -8.8125 24.3125 C-8.49659912 23.24773437 -8.18069824 22.18296875 -7.85522461 21.0859375 C-5.66687275 13.84571083 -3.25476565 6.83950754 0 0 Z " fill="#6CCE97" transform="translate(225,144)"/>
<path d="M0 0 C9 0 9 0 12 2 C12.13288395 4.74626822 12.1388213 7.27498923 12 10 C12 11.32 12 12.64 12 14 C12.33 14.33 12.66 14.66 13 15 C13.35345775 18.7466522 13.50023653 21.15177284 11.5625 24.4375 C9 26 9 26 0 26 C0 17.42 0 8.84 0 0 Z " fill="#252525" transform="translate(229,280)"/>
<path d="M0 0 C3.5625 0.3125 3.5625 0.3125 5.26025391 1.546875 C6.91702681 3.79317827 6.94924841 5.10078891 6.9609375 7.875 C6.96480469 8.75414062 6.96867188 9.63328125 6.97265625 10.5390625 C6.96105469 11.45429688 6.94945312 12.36953125 6.9375 13.3125 C6.94910156 14.22773438 6.96070313 15.14296875 6.97265625 16.0859375 C6.96878906 16.96507812 6.96492187 17.84421875 6.9609375 18.75 C6.95755371 19.55308594 6.95416992 20.35617187 6.95068359 21.18359375 C6.46551938 23.84436853 5.73273569 24.72960736 3.5625 26.3125 C0 26.6875 0 26.6875 -3.4375 26.3125 C-5.58144034 23.0965895 -5.69330474 22.20219066 -5.703125 18.49609375 C-5.70570313 17.56732422 -5.70828125 16.63855469 -5.7109375 15.68164062 C-5.69933594 14.23047852 -5.69933594 14.23047852 -5.6875 12.75 C-5.69523438 11.77869141 -5.70296875 10.80738281 -5.7109375 9.80664062 C-5.70835937 8.87916016 -5.70578125 7.95167969 -5.703125 6.99609375 C-5.70086914 6.14587646 -5.69861328 5.29565918 -5.69628906 4.41967773 C-5.22248181 0.56172454 -3.6720746 0.33382496 0 0 Z " fill="#252525" transform="translate(214.4375,279.6875)"/>
<path d="M0 0 C1.32 0 2.64 0 4 0 C5.31626692 3.61973402 6 6.09567131 6 10 C6.66 10 7.32 10 8 10 C8.33 7.03 8.66 4.06 9 1 C10.32 0.67 11.64 0.34 13 0 C12.56893257 3.52038401 12.06340332 6.7979019 11 10.1875 C9.62932789 15.41318743 9.33561267 20.62136529 9 26 C7.68 26 6.36 26 5 26 C4.83564453 24.76636719 4.83564453 24.76636719 4.66796875 23.5078125 C3.76387697 17.14241831 2.63276313 11.12338318 0.5859375 5.0234375 C0 3 0 3 0 0 Z " fill="#292929" transform="translate(279,280)"/>
<path d="M0 0 C3.63 0 7.26 0 11 0 C11 1.32 11 2.64 11 4 C8.69 4 6.38 4 4 4 C4 6.31 4 8.62 4 11 C5.65 11 7.3 11 9 11 C9 12.32 9 13.64 9 15 C7.35 15 5.7 15 4 15 C4 18.63 4 22.26 4 26 C2.68 26 1.36 26 0 26 C0 17.42 0 8.84 0 0 Z " fill="#2A2A2A" transform="translate(262,280)"/>
<path d="M0 0 C1.32 0 2.64 0 4 0 C4.08720919 3.58317958 4.14046112 7.16608567 4.1875 10.75 C4.21263672 11.76578125 4.23777344 12.7815625 4.26367188 13.828125 C4.27817383 15.29765625 4.27817383 15.29765625 4.29296875 16.796875 C4.31653442 18.14797363 4.31653442 18.14797363 4.34057617 19.52636719 C3.93078878 22.50268682 3.08594487 23.86250077 1 26 C-1.6875 26.25 -1.6875 26.25 -4 26 C-4 24.68 -4 23.36 -4 22 C-2.68 22 -1.36 22 0 22 C0 14.74 0 7.48 0 0 Z " fill="#1F1F1F" transform="translate(197,280)"/>
<path d="M0 0 C1.32 0 2.64 0 4 0 C4 8.58 4 17.16 4 26 C2.68 26 1.36 26 0 26 C0 17.42 0 8.84 0 0 Z " fill="#292929" transform="translate(249,280)"/>
<path d="M0 0 C0.99 0.33 1.98 0.66 3 1 C3 6.94 3 12.88 3 19 C1.68 19 0.36 19 -1 19 C-1.02683987 16.02077407 -1.04676037 13.04178705 -1.0625 10.0625 C-1.07087891 9.21236328 -1.07925781 8.36222656 -1.08789062 7.48632812 C-1.09111328 6.67744141 -1.09433594 5.86855469 -1.09765625 5.03515625 C-1.10289307 4.2862915 -1.10812988 3.53742676 -1.11352539 2.76586914 C-1 1 -1 1 0 0 Z " fill="#F9F9F9" transform="translate(214,283)"/>
<path d="M0 0 C1.32 0 2.64 0 4 0 C4 2.64 4 5.28 4 8 C2.68 8 1.36 8 0 8 C0 5.36 0 2.72 0 0 Z " fill="#EFEFEF" transform="translate(233,294)"/>
<path d="M0 0 C0.66 0.33 1.32 0.66 2 1 C1.38511719 1.88751953 1.38511719 1.88751953 0.7578125 2.79296875 C-0.05042969 3.97826172 -0.05042969 3.97826172 -0.875 5.1875 C-1.40867187 5.96480469 -1.94234375 6.74210938 -2.4921875 7.54296875 C-3.98015439 9.9676609 -5.02428078 12.3333499 -6 15 C-7.24643378 11.50039746 -6.78889218 9.70926639 -5.25 6.375 C-4.90453125 5.59898437 -4.5590625 4.82296875 -4.203125 4.0234375 C-3 2 -3 2 0 0 Z " fill="#95DF7C" transform="translate(266,179)"/>
<path d="M0 0 C1.32 0 2.64 0 4 0 C4 1.98 4 3.96 4 6 C2.68 6.33 1.36 6.66 0 7 C0 4.69 0 2.38 0 0 Z " fill="#E9E9E9" transform="translate(233,284)"/>
</svg>
